<svg xmlns="http://www.w3.org/2000/svg" width="22" height="24" viewBox="0 0 22 24"><g><g><path fill="#adacb4" d="M15.999 10.996v10.308c0 1.487-1.18 2.693-2.639 2.696h-.008c-1.464-.003-2.651-1.21-2.658-2.702V19.3a.364.364 0 0 0-.104-.269.35.35 0 0 0-.263-.104H.57l.102-15.5h10.41c-.087.431-.131.87-.133 1.31-.002.91.19 1.81.564 2.636H7.252a.39.39 0 0 0-.387.394.39.39 0 0 0 .387.395h4.685a6.134 6.134 0 0 0 4.062 2.833zM5.713 15.857c0-.709-.577-1.286-1.286-1.286-.709 0-1.286.577-1.286 1.286 0 .709.577 1.286 1.286 1.286.71 0 1.286-.577 1.286-1.286zm0-4.286c0-.709-.577-1.285-1.286-1.285-.709 0-1.286.576-1.286 1.285 0 .71.577 1.286 1.286 1.286.71 0 1.286-.577 1.286-1.286zm0-3.428c0-.71-.577-1.286-1.286-1.286-.709 0-1.286.577-1.286 1.286 0 .709.577 1.286 1.286 1.286.71 0 1.286-.577 1.286-1.286zm7.714 7.714c0-.236-.178-.428-.398-.428H6.968c-.22 0-.398.192-.398.428 0 .237.178.429.398.429h6.061c.22 0 .398-.192.398-.429zm-.398-4.714H6.968c-.22 0-.398.192-.398.428 0 .237.178.429.398.429h6.061c.22 0 .398-.192.398-.429 0-.236-.178-.428-.398-.428zM16.856 0a5.143 5.143 0 1 1 0 10.286 5.143 5.143 0 0 1 0-10.286zm0 5.188a.983.983 0 0 1-.073-1.964.372.372 0 0 0 .089-.003.984.984 0 0 1 .968.983.365.365 0 0 0 .73 0 1.716 1.716 0 0 0-1.388-1.682V2.08a.365.365 0 0 0-.73 0v.46a1.713 1.713 0 0 0 .404 3.379.984.984 0 1 1-.984.983.365.365 0 0 0-.73 0c0 .79.541 1.478 1.31 1.665v.498a.365.365 0 0 0 .73 0v-.48a1.713 1.713 0 0 0-.326-3.396z"/></g></g></svg>