<svg xmlns="http://www.w3.org/2000/svg" width="48" height="48" viewBox="0 0 48 48"><defs><clipPath id="j9bva"><path fill="#fff" d="M37.133 33.714V44H26.857V33.714C26.857 32 28.57 32 28.57 32h6.85c1.713 0 1.713 1.714 1.713 1.714zm-7.704-5.995A2.574 2.574 0 0 1 32 25.143a2.574 2.574 0 0 1 2.571 2.576A2.574 2.574 0 0 1 32 30.296a2.574 2.574 0 0 1-2.571-2.577zm-6.858-5.148a2.571 2.571 0 1 1 5.143 0 2.571 2.571 0 0 1-5.143 0zm6 7.715s-3.428 0-3.428 3.428v5.143H20V28.571c0-1.714 1.714-1.714 1.714-1.714h6.087a4.248 4.248 0 0 0 .79 3.429zM44 28.57v10.286h-5.143v-5.143s0-3.428-3.428-3.428h-.018c.54-.719.875-1.602.875-2.572 0-.294-.03-.58-.088-.857h6.088C44 26.857 44 28.571 44 28.571zm-7.714-6a2.571 2.571 0 1 1 5.143 0 2.571 2.571 0 0 1-5.143 0z"/></clipPath></defs><g><g><g><g><path fill="#feffff" d="M37.133 33.714V44H26.857V33.714C26.857 32 28.57 32 28.57 32h6.85c1.713 0 1.713 1.714 1.713 1.714zm-7.704-5.995A2.574 2.574 0 0 1 32 25.143a2.574 2.574 0 0 1 2.571 2.576A2.574 2.574 0 0 1 32 30.296a2.574 2.574 0 0 1-2.571-2.577zm-6.858-5.148a2.571 2.571 0 1 1 5.143 0 2.571 2.571 0 0 1-5.143 0zm6 7.715s-3.428 0-3.428 3.428v5.143H20V28.571c0-1.714 1.714-1.714 1.714-1.714h6.087a4.248 4.248 0 0 0 .79 3.429zM44 28.57v10.286h-5.143v-5.143s0-3.428-3.428-3.428h-.018c.54-.719.875-1.602.875-2.572 0-.294-.03-.58-.088-.857h6.088C44 26.857 44 28.571 44 28.571zm-7.714-6a2.571 2.571 0 1 1 5.143 0 2.571 2.571 0 0 1-5.143 0z"/><path fill="none" stroke="#dfd9d9" stroke-miterlimit="50" stroke-width="2" d="M37.133 33.714V44H26.857V33.714C26.857 32 28.57 32 28.57 32h6.85c1.713 0 1.713 1.714 1.713 1.714zm-7.704-5.995A2.574 2.574 0 0 1 32 25.143a2.574 2.574 0 0 1 2.571 2.576A2.574 2.574 0 0 1 32 30.296a2.574 2.574 0 0 1-2.571-2.577zm-6.858-5.148a2.571 2.571 0 1 1 5.143 0 2.571 2.571 0 0 1-5.143 0zm6 7.715s-3.428 0-3.428 3.428v5.143H20V28.571c0-1.714 1.714-1.714 1.714-1.714h6.087a4.248 4.248 0 0 0 .79 3.429zM44 28.57v10.286h-5.143v-5.143s0-3.428-3.428-3.428h-.018c.54-.719.875-1.602.875-2.572 0-.294-.03-.58-.088-.857h6.088C44 26.857 44 28.571 44 28.571zm-7.714-6a2.571 2.571 0 1 1 5.143 0 2.571 2.571 0 0 1-5.143 0z" clip-path="url(&quot;#j9bva&quot;)"/></g></g></g></g></svg>