<svg xmlns="http://www.w3.org/2000/svg" width="48" height="48" viewBox="0 0 48 48"><defs><clipPath id="f3jea"><path fill="#fff" d="M39.506 30l-3.025 7.837-2.754-3.936-1.619 2.133-3.053-5.089-1.65 3.812H20v2.184h6.449c3.04 3.202 7.361 6.595 7.565 6.754l.389.305.39-.303c.216-.167 5.319-4.14 8.266-7.486L44 35.143h-2.39z"/></clipPath><clipPath id="f3jeb"><path fill="#fff" d="M46.201 31.161a8.05 8.05 0 0 0 .901-4.18 7.52 7.52 0 0 0-2.16-4.906C43.616 20.737 41.885 20 40.064 20c-2.773 0-5.043 1.712-5.999 2.561-.928-.856-3.136-2.559-6.02-2.559-1.82 0-3.552.738-4.876 2.077a7.526 7.526 0 0 0-2.16 4.909c-.092 1.75.47 3.542 1.715 5.48l.187.291h3.079l2.476-5.48 3.455 5.501 1.52-1.907L35.726 34l3.403-8.44 3.241 7.568H50v-1.967z"/></clipPath></defs><g><g><g><g><path fill="#feffff" d="M39.506 30l-3.025 7.837-2.754-3.936-1.619 2.133-3.053-5.089-1.65 3.812H20v2.184h6.449c3.04 3.202 7.361 6.595 7.565 6.754l.389.305.39-.303c.216-.167 5.319-4.14 8.266-7.486L44 35.143h-2.39z"/><path fill="none" stroke="#dfd9d9" stroke-miterlimit="50" stroke-width="2" d="M39.506 30v0l-3.025 7.837v0L33.727 33.9v0l-1.619 2.133v0l-3.053-5.089v0l-1.65 3.812v0h-2.881v0H20v2.184h6.449c3.04 3.202 7.361 6.595 7.565 6.754l.389.305v0l.39-.303c.216-.167 5.319-4.14 8.266-7.486L44 35.143v0h-2.39v0z" clip-path="url(&quot;#f3jea&quot;)"/></g><g><path fill="#feffff" d="M46.201 31.161a8.05 8.05 0 0 0 .901-4.18 7.52 7.52 0 0 0-2.16-4.906C43.616 20.737 41.885 20 40.064 20c-2.773 0-5.043 1.712-5.999 2.561-.928-.856-3.136-2.559-6.02-2.559-1.82 0-3.552.738-4.876 2.077a7.526 7.526 0 0 0-2.16 4.909c-.092 1.75.47 3.542 1.715 5.48l.187.291h3.079l2.476-5.48 3.455 5.501 1.52-1.907L35.726 34l3.403-8.44 3.241 7.568H50v-1.967z"/><path fill="none" stroke="#dfd9d9" stroke-miterlimit="50" stroke-width="2" d="M46.201 31.161a8.05 8.05 0 0 0 .901-4.18 7.52 7.52 0 0 0-2.16-4.906C43.616 20.737 41.885 20 40.064 20c-2.773 0-5.043 1.712-5.999 2.561-.928-.856-3.136-2.559-6.02-2.559-1.82 0-3.552.738-4.876 2.077a7.526 7.526 0 0 0-2.16 4.909c-.092 1.75.47 3.542 1.715 5.48l.187.291v0h3.079v0l2.476-5.48v0l3.455 5.501v0l1.52-1.907v0L35.726 34v0l3.403-8.44v0l3.241 7.568v0h.15v0h2.41v0H50v0-1.967 0z" clip-path="url(&quot;#f3jeb&quot;)"/></g></g></g></g></svg>